PathFileType	4	(X/Y/Z)	RBDS04static.trc
DataRate	CameraRate	NumFrames	NumMarkers	Units	OrigDataRate	OrigDataStartFrame	OrigNumFrames
150.000000	150.000000	4	48	mm	150.000000	0	150
Frame#	Time	L.Ankle			L.Ankle.Medial			L.ASIS			L.GTR			L.Heel.Bottom			L.Heel.Lateral			L.Heel.Top			L.HF			L.Iliac.Crest			L.Knee			L.Knee.Medial			L.MT1			L.MT2			L.MT5			L.PSIS			L.Shank.Bottom.Lateral			L.Shank.Bottom.Medial			L.Shank.Top.Lateral			L.Shank.Top.Medial			L.Thigh.Bottom.Lateral			L.Thigh.Bottom.Medial			L.Thigh.Top.Lateral			L.Thigh.Top.Medial			L.TT			R.Ankle			R.Ankle.Medial			R.ASIS			R.GTR			R.Heel.Bottom			R.Heel.Lateral			R.Heel.Top			R.HF			R.Iliac.Crest			R.Knee			R.Knee.Medial			R.MT1			R.MT2			R.MT5			R.PSIS			R.Shank.Bottom.Lateral			R.Shank.Bottom.Medial			R.Shank.Top.Lateral			R.Shank.Top.Medial			R.Thigh.Bottom.Lateral			R.Thigh.Bottom.Medial			R.Thigh.Top.Lateral			R.Thigh.Top.Medial			R.TT			
		X1	Y1	Z1	X2	Y2	Z2	X3	Y3	Z3	X4	Y4	Z4	X5	Y5	Z5	X6	Y6	Z6	X7	Y7	Z7	X8	Y8	Z8	X9	Y9	Z9	X10	Y10	Z10	X11	Y11	Z11	X12	Y12	Z12	X13	Y13	Z13	X14	Y14	Z14	X15	Y15	Z15	X16	Y16	Z16	X17	Y17	Z17	X18	Y18	Z18	X19	Y19	Z19	X20	Y20	Z20	X21	Y21	Z21	X22	Y22	Z22	X23	Y23	Z23	X24	Y24	Z24	X25	Y25	Z25	X26	Y26	Z26	X27	Y27	Z27	X28	Y28	Z28	X29	Y29	Z29	X30	Y30	Z30	X31	Y31	Z31	X32	Y32	Z32	X33	Y33	Z33	X34	Y34	Z34	X35	Y35	Z35	X36	Y36	Z36	X37	Y37	Z37	X38	Y38	Z38	X39	Y39	Z39	X40	Y40	Z40	X41	Y41	Z41	X42	Y42	Z42	X43	Y43	Z43	X44	Y44	Z44	X45	Y45	Z45	X46	Y46	Z46	X47	Y47	Z47	X48	Y48	Z48	

1	0	694.11376953125	100.8262405395508	1055.108154296875	715.2970581054688	105.0769119262695	1134.211059570313	837.7207641601563	977.821533203125	1130.7998046875	747.1426391601563	896.5347900390625	1063.383666992188	629.6929931640625	38.867919921875	1086.588256835938	662.44140625	58.45761871337891	1046.56494140625	638.6080322265625	85.62385559082031	1087.598022460938	700.8760986328125	451.3513793945313	1050.051635742188	762.108642578125	1039.0888671875	1085.484741210938	711.1888427734375	516.6851806640625	1056.388916015625	703.6276245117188	505.0173034667969	1170.49853515625	842.8250732421875	61.35955810546875	1129.265747070313	841.7750244140625	65.86914825439453	1081.747314453125	816.5328369140625	49.63736724853516	1028.25927734375	669.25634765625	1000.9072265625	1188.522827148438	695.910400390625	184.4543304443359	1047.44384765625	652.9033203125	179.4692687988281	1074.306884765625	686.6282348632813	264.1068725585938	1038.39892578125	641.7679443359375	263.2613830566406	1067.468627929688	728.5762329101563	632.5512084960938	1042.673950195313	666.403564453125	634.8580932617188	1081.41943359375	727.2359008789063	743.09814453125	1041.387817382813	671.415283203125	745.1921997070313	1082.40771484375	750.6005249023438	430.3958129882813	1097.164672851563	692.7822875976563	95.76940155029297	1398.911376953125	714.6688842773438	110.9672622680664	1320.467651367188	832.9362182617188	975.0208129882813	1334.751098632813	764.8748168945313	893.3372802734375	1399.779296875	628.433349609375	39.14276504516602	1364.834716796875	660.2855224609375	56.35585021972656	1405.329467773438	636.0333862304688	84.74984741210938	1364.548706054688	713.807373046875	450.0849304199219	1415.148315429688	760.0614624023438	1028.459716796875	1376.227661132813	711.885009765625	526.7379150390625	1404.991455078125	715.8347778320313	506.7074584960938	1291.249633789063	841.988525390625	63.36255645751953	1332.817993164063	855.761474609375	64.66207885742188	1375.303955078125	814.2032470703125	53.02910232543945	1430.329833984375	667.4290771484375	1002.382141113281	1273.861328125	686.0250854492188	179.0948181152344	1409.964599609375	648.9210205078125	181.6483612060547	1370.032470703125	676.945068359375	259.039306640625	1420.9990234375	642.2335815429688	260.6688537597656	1379.52880859375	721.5407104492188	618.4784545898438	1413.330322265625	665.5135498046875	618.75	1362.375732421875	715.1881713867188	728.9462890625	1417.106323242188	664.5120849609375	728.6437377929688	1368.074951171875	762.6929931640625	432.6080627441406	1360.0888671875	
2	0.006666666666666667	694.0925903320313	100.815299987793	1055.108032226563	715.302978515625	105.0855484008789	1134.223999023438	837.6723022460938	977.8190307617188	1130.82177734375	747.11083984375	896.5306396484375	1063.423095703125	629.684326171875	38.8662223815918	1086.576171875	662.4384765625	58.45209503173828	1046.575561523438	638.6174926757813	85.62549591064453	1087.595825195313	700.8419189453125	451.3583068847656	1050.065063476563	762.05615234375	1039.084228515625	1085.509765625	711.141357421875	516.6915893554688	1056.389892578125	703.6040649414063	505.0164184570313	1170.5205078125	842.8300170898438	61.35831451416016	1129.262939453125	841.7730712890625	65.87704467773438	1081.743286132813	816.5521850585938	49.63955307006836	1028.264770507813	669.2230224609375	1000.907470703125	1188.543579101563	695.8995971679688	184.4502563476563	1047.436767578125	652.8877563476563	179.4637145996094	1074.304443359375	686.6138305664063	264.1007995605469	1038.400268554688	641.7531127929688	263.263427734375	1067.473876953125	728.522705078125	632.5487060546875	1042.684692382813	666.3583374023438	634.8524169921875	1081.451049804688	727.1884765625	743.09716796875	1041.411987304688	671.368896484375	745.192138671875	1082.43798828125	750.5709838867188	430.3746032714844	1097.1689453125	692.7809448242188	95.77535247802734	1398.910034179688	714.6828002929688	110.9630813598633	1320.46484375	832.9154052734375	975.0196533203125	1334.759765625	764.8550415039063	893.3504028320313	1399.806518554688	628.4288330078125	39.14918518066406	1364.8076171875	660.2914428710938	56.35866546630859	1405.329956054688	636.034423828125	84.75140380859375	1364.549682617188	713.8018188476563	450.0931396484375	1415.15966796875	760.044921875	1028.473754882813	1376.2373046875	711.8778686523438	526.7347412109375	1405.005737304688	715.8174438476563	506.7296447753906	1291.255737304688	841.9957885742188	63.36725234985352	1332.818359375	855.7614135742188	64.65945434570313	1375.299926757813	814.1961059570313	53.02775192260742	1430.337280273438	667.405029296875	1002.382446289063	1273.87646484375	686.025146484375	179.0867309570313	1409.962890625	648.9161376953125	181.6521301269531	1370.046264648438	676.94189453125	259.0325012207031	1421.009887695313	642.2301025390625	260.6708984375	1379.547973632813	721.5313720703125	618.47021484375	1413.349365234375	665.491943359375	618.7581787109375	1362.3916015625	715.172119140625	728.9506225585938	1417.123291015625	664.4866943359375	728.6486206054688	1368.099487304688	762.6802368164063	432.6098327636719	1360.1025390625	
3	0.01333333333333333	694.080810546875	100.8270111083984	1055.116455078125	715.3031616210938	105.0700302124023	1134.217163085938	837.6329956054688	977.8255004882813	1130.837524414063	747.0676879882813	896.5269775390625	1063.440795898438	629.6829223632813	38.86479949951172	1086.581176757813	662.4365844726563	58.45956420898438	1046.566284179688	638.6094360351563	85.62031555175781	1087.599975585938	700.8140258789063	451.3581237792969	1050.078125	762.0027465820313	1039.097900390625	1085.530151367188	711.1137084960938	516.696533203125	1056.41357421875	703.581298828125	505.0039672851563	1170.527099609375	842.8231201171875	61.3629150390625	1129.259399414063	841.7667236328125	65.87932586669922	1081.74853515625	816.5391845703125	49.63568496704102	1028.262573242188	669.1886596679688	1000.904052734375	1188.564331054688	695.8936157226563	184.456787109375	1047.436889648438	652.8815307617188	179.4565124511719	1074.32177734375	686.5928955078125	264.1119384765625	1038.409912109375	641.7450561523438	263.2518920898438	1067.49267578125	728.4888305664063	632.5452270507813	1042.698486328125	666.3187255859375	634.8546142578125	1081.471557617188	727.142578125	743.1012573242188	1041.432983398438	671.3298950195313	745.1935424804688	1082.471069335938	750.5534057617188	430.3851623535156	1097.180419921875	692.7865600585938	95.76838684082031	1398.922119140625	714.6800537109375	110.9705200195313	1320.474365234375	832.8887939453125	975.0350341796875	1334.784057617188	764.8406372070313	893.3583984375	1399.833251953125	628.4307250976563	39.14627838134766	1364.8310546875	660.28515625	56.35928344726563	1405.329956054688	636.031494140625	84.75376129150391	1364.5576171875	713.7931518554688	450.0997009277344	1415.172485351563	760.0319213867188	1028.49462890625	1376.24853515625	711.8679809570313	526.7454833984375	1405.023315429688	715.8093872070313	506.7322082519531	1291.27978515625	841.9912719726563	63.35818481445313	1332.82177734375	855.7531127929688	64.66586303710938	1375.3056640625	814.2026977539063	53.03607177734375	1430.332763671875	667.3842163085938	1002.380065917969	1273.91015625	686.0223999023438	179.0878601074219	1409.9638671875	648.912109375	181.6533966064453	1370.058471679688	676.9338989257813	259.033935546875	1421.01953125	642.2304077148438	260.6663208007813	1379.550903320313	721.5213623046875	618.470947265625	1413.360229492188	665.4751586914063	618.756591796875	1362.410888671875	715.1664428710938	728.948486328125	1417.139038085938	664.4700927734375	728.6517333984375	1368.127319335938	762.6843872070313	432.6267700195313	1360.109008789063	
4	0.02	694.0899047851563	100.8165283203125	1055.110595703125	715.2935791015625	105.0879898071289	1134.224487304688	837.592041015625	977.8202514648438	1130.861328125	747.0292358398438	896.5218505859375	1063.45947265625	629.6822509765625	38.86126327514648	1086.578491210938	662.4391479492188	58.44728469848633	1046.574951171875	638.6012573242188	85.62123870849609	1087.595947265625	700.7941284179688	451.3589477539063	1050.09423828125	761.9415893554688	1039.094970703125	1085.561645507813	711.0819702148438	516.6931762695313	1056.429077148438	703.5558471679688	504.9879455566406	1170.534790039063	842.8180541992188	61.36368942260742	1129.267822265625	841.7725219726563	65.87676239013672	1081.755859375	816.5433349609375	49.63162994384766	1028.266723632813	669.1618041992188	1000.902587890625	1188.58642578125	695.8794555664063	184.45458984375	1047.447509765625	652.87548828125	179.4543914794922	1074.309936523438	686.5723876953125	264.1011657714844	1038.420043945313	641.7320556640625	263.2522583007813	1067.501831054688	728.4512939453125	632.5462036132813	1042.714477539063	666.2777709960938	634.8543090820313	1081.490112304688	727.109130859375	743.0936279296875	1041.44482421875	671.2958984375	745.1793212890625	1082.494995117188	750.5340576171875	430.3959350585938	1097.18310546875	692.7754516601563	95.77874755859375	1398.917114257813	714.6669921875	110.9684982299805	1320.470947265625	832.869873046875	975.0337524414063	1334.770263671875	764.814697265625	893.3565063476563	1399.855590820313	628.4312133789063	39.15000152587891	1364.812744140625	660.2927856445313	56.35314559936523	1405.331787109375	636.02734375	84.75174713134766	1364.559814453125	713.7769165039063	450.0841674804688	1415.193359375	760.0032958984375	1028.519287109375	1376.249633789063	711.8447265625	526.7298583984375	1405.0380859375	715.7689208984375	506.7258911132813	1291.286743164063	841.9967651367188	63.3592643737793	1332.82177734375	855.7677001953125	64.66253662109375	1375.303833007813	814.1984252929688	53.02219772338867	1430.327514648438	667.3682861328125	1002.377197265625	1273.934936523438	686.0247192382813	179.0842437744141	1409.974365234375	648.9119262695313	181.6534729003906	1370.06103515625	676.9310913085938	259.0242919921875	1421.029907226563	642.2229614257813	260.6672668457031	1379.552490234375	721.5120239257813	618.4682006835938	1413.374755859375	665.4576416015625	618.7439575195313	1362.434204101563	715.1450805664063	728.9529418945313	1417.163818359375	664.4530639648438	728.642822265625	1368.150512695313	762.6622924804688	432.6168518066406	1360.114501953125	
